<svg width="1061" height="300" viewBox="0 0 1061 300" fill="none" xmlns="http://www.w3.org/2000/svg">
<path d="M385.006 259.75C369.631 259.75 360.256 254.275 360.256 241.525V241.075H374.356V242.65C374.356 246.025 375.556 246.925 385.006 246.925C393.556 246.925 394.456 246.25 394.456 244C394.456 242.2 393.481 241.45 389.356 240.925L373.606 238.825C364.231 237.55 359.506 232.525 359.506 224.425C359.506 216.4 365.731 208 383.881 208C399.856 208 407.506 214.975 407.506 226.225V226.675H393.406V225.55C393.406 221.95 391.831 220.75 382.381 220.75C375.181 220.75 373.606 221.725 373.606 223.9C373.606 225.475 374.506 226.225 377.206 226.6L392.956 228.925C405.256 230.725 408.556 237.025 408.556 243.475C408.556 252.1 401.956 259.75 385.006 259.75ZM442.65 259H428.55V221.425H410.775V208.75H460.35V221.425H442.65V259ZM489.106 259.75C471.556 259.75 463.456 251.275 463.456 237.925V208.75H477.556V236.8C477.556 243.925 479.581 246.1 489.106 246.1C498.631 246.1 500.656 243.925 500.656 236.8V208.75H514.756V237.925C514.756 251.275 506.656 259.75 489.106 259.75ZM545.23 259H519.805V208.75H545.23C561.805 208.75 572.305 217.975 572.305 233.875C572.305 249.775 561.805 259 545.23 259ZM545.23 221.425H533.905V246.325H545.23C554.155 246.325 557.23 245.2 557.23 233.875C557.23 222.55 554.155 221.425 545.23 221.425ZM590.136 259H576.036V208.75H590.136V259ZM621.715 259.75C604.24 259.75 593.89 249.55 593.89 233.875C593.89 218.2 604.24 208 621.715 208C639.64 208 649.84 218.2 649.84 233.875C649.84 249.55 639.64 259.75 621.715 259.75ZM621.715 246.25C631.915 246.25 634.84 243.85 634.84 233.875C634.84 223.9 631.915 221.5 621.715 221.5C611.515 221.5 608.89 223.9 608.89 233.875C608.89 243.85 611.515 246.25 621.715 246.25ZM677.975 259.75C662.6 259.75 653.225 254.275 653.225 241.525V241.075H667.325V242.65C667.325 246.025 668.525 246.925 677.975 246.925C686.525 246.925 687.425 246.25 687.425 244C687.425 242.2 686.45 241.45 682.325 240.925L666.575 238.825C657.2 237.55 652.475 232.525 652.475 224.425C652.475 216.4 658.7 208 676.85 208C692.825 208 700.475 214.975 700.475 226.225V226.675H686.375V225.55C686.375 221.95 684.8 220.75 675.35 220.75C668.15 220.75 666.575 221.725 666.575 223.9C666.575 225.475 667.475 226.225 670.175 226.6L685.925 228.925C698.225 230.725 701.525 237.025 701.525 243.475C701.525 252.1 694.925 259.75 677.975 259.75Z" fill="white"/>
<path d="M234.516 189H196.916V88.8H149.516V55H281.716V88.8H234.516V189ZM324.997 189H282.797L340.597 55H394.397L452.397 189H409.197L398.997 164.2H335.397L324.997 189ZM357.397 111.6L349.597 130.4H385.197L377.397 111.6L368.597 89H365.997L357.397 111.6ZM526.422 189H458.622V55H526.422C570.622 55 598.622 79.6 598.622 122C598.622 164.4 570.622 189 526.422 189ZM526.422 88.8H496.222V155.2H526.422C550.222 155.2 558.422 152.2 558.422 122C558.422 91.8 550.222 88.8 526.422 88.8ZM646.17 189H608.57V55H646.17V104.8H673.17L705.77 55H750.77L704.37 120.8L749.77 189H704.77L673.57 141.4H646.17V189ZM789.059 189H746.859L804.659 55H858.459L916.459 189H873.259L863.059 164.2H799.459L789.059 189ZM821.459 111.6L813.659 130.4H849.259L841.459 111.6L832.659 89H830.059L821.459 111.6Z" fill="white"/>
</svg>
